<svg width="30" height="20" viewBox="0 0 30 20" fill="none" xmlns="http://www.w3.org/2000/svg">
<g clip-path="url(#clip0_490_13145)">
<path fill-rule="evenodd" clip-rule="evenodd" d="M15.0214 5.0002C15.2056 5.0002 15.4348 5.092 15.7108 5.3674L21.088 10.744C21.9604 11.6176 21.4552 12.304 20.308 12.2146H15.0214L18.1924 15.4774H24.9478C27.016 15.5692 28.6678 13.639 26.6026 11.6632L17.1826 2.2876C16.3972 1.5058 15.7108 1 15.0214 1C14.332 1 13.6414 1.5058 12.8614 2.2876L3.44135 11.6626C1.37375 13.6384 3.02735 15.5686 5.09555 15.4762H11.8504L15.0214 12.214H9.73655C8.58755 12.3058 8.08175 11.614 8.95655 10.7434L14.3332 5.3674C14.6086 5.092 14.839 5.0002 15.0226 5.0002" fill="#2A58A3"/>
<path fill-rule="evenodd" clip-rule="evenodd" d="M14.9884 8.13525C15.3748 8.13502 15.7526 8.24936 16.074 8.46383C16.3954 8.6783 16.646 8.98325 16.794 9.34013C16.9421 9.69702 16.9811 10.0898 16.9059 10.4688C16.8308 10.8478 16.6449 11.196 16.3719 11.4694C16.0988 11.7428 15.7508 11.9291 15.3719 12.0047C14.993 12.0803 14.6002 12.0418 14.2431 11.8942C13.886 11.7466 13.5808 11.4963 13.3659 11.1752C13.1511 10.8541 13.0362 10.4764 13.036 10.0901C13.0362 9.57224 13.2419 9.07567 13.608 8.70946C13.9741 8.34326 14.4706 8.13737 14.9884 8.13705" fill="#E6363B"/>
<path fill-rule="evenodd" clip-rule="evenodd" d="M15 19.0001H24.8802C26.4888 18.9539 26.9028 18.5405 28.2354 15.9209C26.397 17.6669 25.9836 17.7587 24.8802 17.7587H5.11985C4.01705 17.7587 3.60305 17.6669 1.76465 15.9209C3.09725 18.5405 3.51125 18.9539 5.11985 19.0001H15Z" fill="#2A58A3"/>
<path d="M23.5564 17.0588H23.8564V17.2652H23.5564V17.0588ZM23.5564 16.4636H23.8564V16.6706H23.5564V16.4636ZM21.6742 16.8944C21.6742 16.5602 22.1884 16.5824 22.1884 16.5824L22.2484 16.7294C22.1968 16.7168 21.9334 16.712 21.9226 16.8932C21.9243 16.9394 21.9442 16.9831 21.9779 17.0148C22.0115 17.0465 22.0564 17.0636 22.1026 17.0624H22.1134C22.1585 17.065 22.2037 17.0571 22.2453 17.0394C22.2869 17.0218 22.3239 16.9947 22.3534 16.9604V16.4636H21.5194V16.3166H23.3644V16.4636H22.6048V16.6844C22.6798 16.6281 22.7721 16.5997 22.8658 16.604C23.0812 16.604 23.2624 16.7378 23.2624 16.898C23.2624 17.1068 22.9678 17.297 22.9678 17.297L22.7782 17.1962C22.7842 17.1962 23.011 17.0576 23.011 16.9016C23.0104 16.881 23.0058 16.8607 22.9974 16.8418C22.989 16.8229 22.977 16.8059 22.962 16.7917C22.947 16.7775 22.9294 16.7664 22.9101 16.759C22.8908 16.7516 22.8702 16.7481 22.8496 16.7486H22.8406C22.7949 16.7535 22.7506 16.7677 22.7106 16.7903C22.6706 16.8129 22.6356 16.8434 22.6078 16.88V17.4146H22.3528V17.1572C22.0708 17.2904 21.6742 17.1698 21.6742 16.8962V16.8944ZM21.484 15.854V15.9638C21.4391 15.9493 21.3918 15.9436 21.3448 15.947C21.0844 15.947 21.112 16.2716 21.3166 16.3148H21.1522C21.1006 16.2926 20.962 16.172 20.968 16.0622C20.9734 15.8684 21.268 15.7586 21.484 15.8558V15.854ZM20.8522 16.3172H21.4786V16.4648H21.3316V17.411H21.07V16.463H20.8546V16.316L20.8522 16.3172ZM20.3674 16.664C20.4022 16.6675 20.4373 16.6625 20.4699 16.6497C20.5024 16.6369 20.5315 16.6165 20.5546 16.5902C20.572 16.4486 20.2006 16.3922 20.2006 16.5602C20.2036 16.6226 20.2828 16.664 20.3674 16.664ZM19.7524 16.319H20.8492V16.466H20.716C20.9488 16.7006 20.7328 17.0498 20.3482 17.072C20.359 17.072 20.4418 17.132 20.5042 17.1692C20.6146 17.2292 20.7136 17.285 20.719 17.2892L20.572 17.4242C20.3176 17.327 20.101 17.1416 19.9036 16.991L20.0674 16.871L20.1634 16.931C20.1978 16.9471 20.2366 16.9515 20.2738 16.9436C20.5006 16.907 20.5378 16.8062 20.5432 16.7582C20.2798 16.8944 19.8634 16.6982 20.0194 16.4642H19.7584L19.7524 16.319ZM18.3238 16.319H19.7578V16.466H19.486V16.766H18.883C18.8481 16.762 18.8129 16.772 18.7854 16.7938C18.7578 16.8156 18.74 16.8475 18.736 16.8824V16.8884C18.736 17.087 19.1068 17.1578 19.1806 17.1194C19.1798 17.0953 19.1838 17.0712 19.1925 17.0487C19.2012 17.0262 19.2143 17.0056 19.2311 16.9883C19.2479 16.9709 19.268 16.9571 19.2903 16.9477C19.3125 16.9383 19.3364 16.9334 19.3606 16.9334H19.3822C19.5748 16.9334 19.6084 17.1614 19.4386 17.207C19.459 17.2463 19.4837 17.2831 19.5124 17.3168C19.552 17.3708 19.6234 17.4488 19.6234 17.4488H19.3564C19.3564 17.4488 19.3138 17.3888 19.291 17.351C19.2682 17.3132 19.2628 17.2952 19.246 17.2676C19.2346 17.2718 18.4786 17.2952 18.4834 16.871C18.4834 16.7348 18.6484 16.6232 18.838 16.6232H19.2244V16.4636H18.3244V16.3166L18.3238 16.319ZM17.8828 16.9676V17.0948L17.254 17.4092L17.107 17.267L17.8828 16.9676ZM17.626 17.1008C17.2888 17.0966 17.1808 16.8662 17.1808 16.8008V16.4648H16.993V16.3178H18.2944V16.4648H18.1474V17.411H17.8924V17.051C17.8117 17.0923 17.7213 17.111 17.6308 17.105L17.626 17.1008ZM17.8894 16.463H17.4406V16.808C17.4406 16.8872 17.497 16.9628 17.641 16.9676C17.6885 16.9679 17.7355 16.9582 17.779 16.9392C17.8225 16.9202 17.8615 16.8923 17.8936 16.8572L17.8894 16.463ZM16.3624 16.316H16.9882V16.463H16.8406V17.4092H16.5796V16.463H16.3654V16.316H16.3624ZM15.832 16.5998V16.727C15.772 16.7318 15.4834 16.706 15.4834 16.5116C15.4834 16.3808 15.6532 16.2914 15.8434 16.2962C16.09 16.2962 16.2976 16.4498 16.2976 16.631C16.2976 16.8122 16.0576 16.976 15.8266 16.967C15.8266 16.967 15.9004 17.081 16.1128 17.0762C16.2063 17.0723 16.2981 17.0497 16.3828 17.0099C16.4675 16.97 16.5434 16.9136 16.606 16.844V17.084C16.2064 17.3402 15.5608 17.2136 15.4504 16.8062C15.529 16.8249 15.6096 16.8342 15.6904 16.8338C15.8548 16.8338 16.0444 16.7738 16.0444 16.6136C16.0457 16.5677 16.0289 16.523 15.9976 16.4894C15.9662 16.4557 15.9229 16.4357 15.877 16.4336C15.8666 16.4328 15.8562 16.4328 15.8458 16.4336C15.6838 16.4396 15.6778 16.6028 15.8392 16.6028L15.832 16.5998ZM14.7688 17.1002C14.4322 17.0966 14.3278 16.8656 14.3278 16.8002V16.4672H14.1406V16.3202H15.4408V16.4672H15.2938V17.4134H15.0388V17.0534C14.9568 17.0954 14.8649 17.1141 14.773 17.1074L14.7688 17.1002ZM15.0328 16.4624H14.5792V16.8074C14.5792 16.8866 14.6356 16.9622 14.7808 16.967C14.8282 16.9672 14.8751 16.9575 14.9185 16.9385C14.9619 16.9195 15.0008 16.8916 15.0328 16.8566V16.4624ZM12.5458 17.0624H12.8458V17.2688H12.5458V17.0624ZM12.5458 16.4672H12.8458V16.6742H12.5458V16.4672ZM10.6612 16.8998C10.6612 16.565 11.176 16.5872 11.176 16.5872L11.236 16.7342C11.1844 16.7216 10.921 16.7174 10.9096 16.898C10.911 16.9212 10.917 16.9438 10.9272 16.9646C10.9374 16.9854 10.9516 17.004 10.969 17.0193C10.9864 17.0346 11.0066 17.0464 11.0285 17.0539C11.0505 17.0614 11.0737 17.0645 11.0968 17.063H11.1052C11.1503 17.066 11.1955 17.0584 11.2372 17.0408C11.2789 17.0232 11.3159 16.9961 11.3452 16.9616V16.4672H10.5088V16.3202H12.3526V16.4672H11.5936V16.688C11.6684 16.6318 11.7605 16.6034 11.854 16.6076C12.0694 16.6076 12.2512 16.7414 12.2512 16.9016C12.2512 17.1104 11.9512 17.3006 11.9512 17.3006L11.7622 17.1938C11.7676 17.1938 11.9944 17.0552 11.9944 16.8998C11.9933 16.8581 11.9757 16.8185 11.9454 16.7897C11.9152 16.7609 11.8747 16.7453 11.833 16.7462H11.8246C11.779 16.7512 11.7349 16.7654 11.6949 16.788C11.655 16.8106 11.6201 16.8411 11.5924 16.8776V17.4122H11.3368V17.1548C11.0644 17.2904 10.6612 17.1698 10.6612 16.8962V16.8998ZM9.07779 16.3226H10.5058V16.4696H10.3588V17.4158H10.0972V16.8548H9.64359V17.0018C9.64461 17.0103 9.64382 17.0189 9.64126 17.027C9.63871 17.0352 9.63445 17.0426 9.62878 17.049C9.6231 17.0554 9.61613 17.0604 9.60834 17.0639C9.60055 17.0673 9.59211 17.0691 9.58359 17.069C9.5784 17.0696 9.57317 17.0696 9.56799 17.069C9.47979 17.0648 9.22479 16.829 9.22479 16.778C9.22479 16.7048 9.31839 16.7048 9.32979 16.7048H10.0924V16.4648H9.07839L9.07779 16.3226ZM8.44539 16.3226H9.07179V16.4696H8.92479V17.4158H8.66439V16.463H8.44839L8.44539 16.3226ZM8.04039 16.4696H7.61199V16.793H8.04279L8.04039 16.4696ZM7.02039 16.3226H8.44839V16.4696H8.30439V17.4158H8.04039V16.9358H7.61199V17.063C7.61206 17.0727 7.61025 17.0822 7.60664 17.0911C7.60304 17.1 7.59771 17.1081 7.59097 17.115C7.58423 17.1218 7.5762 17.1273 7.56735 17.131C7.5585 17.1348 7.549 17.1368 7.53939 17.1368H7.52979C7.45659 17.1368 7.16199 16.8968 7.16199 16.85C7.16199 16.8032 7.25559 16.796 7.26159 16.796H7.36059V16.4678H7.02039V16.3226Z" fill="#E6363B"/>
</g>
<defs>
<clipPath id="clip0_490_13145">
<rect width="26.4708" height="18" fill="white" transform="translate(1.76453 1)"/>
</clipPath>
</defs>
</svg>
