<svg width="16" height="17" viewBox="0 0 16 17" fill="none" xmlns="http://www.w3.org/2000/svg">
<path d="M12.5 14.5H9.40875C9.92803 14.0363 10.4177 13.5406 10.875 13.0156C12.5906 11.0425 13.5 8.9625 13.5 7C13.5 5.54131 12.9205 4.14236 11.8891 3.11091C10.8576 2.07946 9.45869 1.5 8 1.5C6.54131 1.5 5.14236 2.07946 4.11091 3.11091C3.07946 4.14236 2.5 5.54131 2.5 7C2.5 8.9625 3.40688 11.0425 5.125 13.0156C5.58226 13.5406 6.07197 14.0363 6.59125 14.5H3.5C3.36739 14.5 3.24021 14.5527 3.14645 14.6464C3.05268 14.7402 3 14.8674 3 15C3 15.1326 3.05268 15.2598 3.14645 15.3536C3.24021 15.4473 3.36739 15.5 3.5 15.5H12.5C12.6326 15.5 12.7598 15.4473 12.8536 15.3536C12.9473 15.2598 13 15.1326 13 15C13 14.8674 12.9473 14.7402 12.8536 14.6464C12.7598 14.5527 12.6326 14.5 12.5 14.5ZM8 5C8.39556 5 8.78224 5.1173 9.11114 5.33706C9.44004 5.55682 9.69638 5.86918 9.84776 6.23463C9.99913 6.60009 10.0387 7.00222 9.96157 7.39018C9.8844 7.77814 9.69392 8.13451 9.41421 8.41421C9.13451 8.69392 8.77814 8.8844 8.39018 8.96157C8.00222 9.03874 7.60009 8.99913 7.23463 8.84776C6.86918 8.69638 6.55682 8.44004 6.33706 8.11114C6.1173 7.78224 6 7.39556 6 7C6 6.46957 6.21071 5.96086 6.58579 5.58579C6.96086 5.21071 7.46957 5 8 5Z" fill="#2B3990"/>
</svg>
